<?xml version="1.0" encoding="UTF-8" standalone="no"?>
<!-- Created with Inkscape (http://www.inkscape.org/) -->

<svg
   width="210mm"
   height="297mm"
   viewBox="0 0 210 297"
   version="1.1"
   id="svg5"
   inkscape:version="1.1.2 (0a00cf5339, 2022-02-04)"
   sodipodi:docname="ITAP-scheme.svg"
   xmlns:inkscape="http://www.inkscape.org/namespaces/inkscape"
   xmlns:sodipodi="http://sodipodi.sourceforge.net/DTD/sodipodi-0.dtd"
   xmlns:xlink="http://www.w3.org/1999/xlink"
   xmlns="http://www.w3.org/2000/svg"
   xmlns:svg="http://www.w3.org/2000/svg">
  <sodipodi:namedview
     id="namedview7"
     pagecolor="#ffffff"
     bordercolor="#999999"
     borderopacity="1"
     inkscape:pageshadow="0"
     inkscape:pageopacity="0"
     inkscape:pagecheckerboard="0"
     inkscape:document-units="mm"
     showgrid="false"
     inkscape:zoom="1.5554293"
     inkscape:cx="98.043672"
     inkscape:cy="302.81029"
     inkscape:window-width="2550"
     inkscape:window-height="1395"
     inkscape:window-x="4"
     inkscape:window-y="704"
     inkscape:window-maximized="1"
     inkscape:current-layer="layer2"
     inkscape:snap-global="false"
     inkscape:lockguides="true">
    <inkscape:grid
       type="xygrid"
       id="grid10960" />
  </sodipodi:namedview>
  <defs
     id="defs2">
    <linearGradient
       inkscape:collect="always"
       id="linearGradient1779">
      <stop
         style="stop-color:#b3b3b3;stop-opacity:1;"
         offset="0"
         id="stop1775" />
      <stop
         style="stop-color:#b3b3b3;stop-opacity:0;"
         offset="1"
         id="stop1777" />
    </linearGradient>
    <linearGradient
       inkscape:collect="always"
       id="linearGradient1533">
      <stop
         style="stop-color:#ffaaaa;stop-opacity:1;"
         offset="0"
         id="stop1529" />
      <stop
         style="stop-color:#ffaaaa;stop-opacity:0;"
         offset="1"
         id="stop1531" />
    </linearGradient>
    <rect
       x="104.82165"
       y="226.18812"
       width="95.307342"
       height="18.502313"
       id="rect11770" />
    <linearGradient
       inkscape:collect="always"
       xlink:href="#linearGradient1533"
       id="linearGradient1535"
       x1="129.34892"
       y1="7.4795318"
       x2="129.34892"
       y2="-0.36225817"
       gradientUnits="userSpaceOnUse"
       gradientTransform="matrix(1.0420038,0,0,1,-5.0662052,12.749879)" />
    <linearGradient
       inkscape:collect="always"
       xlink:href="#linearGradient1779"
       id="linearGradient1781"
       x1="-6.6531701"
       y1="120.28996"
       x2="-1.9915082"
       y2="120.28996"
       gradientUnits="userSpaceOnUse"
       gradientTransform="matrix(1.023724,0,0,1,-10.929612,0.0422766)" />
  </defs>
  <g
     inkscape:groupmode="layer"
     id="layer2"
     inkscape:label="Background">
    <rect
       style="fill:#cccccc;fill-opacity:0.409912;stroke:#000000;stroke-width:0.242472;stroke-miterlimit:4;stroke-dasharray:0.242472, 0.969886;stroke-dashoffset:0"
       id="rect1451"
       width="47.091354"
       height="32.579075"
       x="-157.90392"
       y="96.539764"
       ry="0"
       transform="rotate(-90)" />
    <path
       id="rect1451-3"
       style="fill:url(#linearGradient1535);fill-opacity:1;stroke:none;stroke-width:0.751284;stroke-miterlimit:4;stroke-dasharray:none;stroke-dashoffset:0"
       d="m 81.594242,10.013342 v 85.594776 c 0.140641,0.06772 0.28592,0.182231 0.424314,0.353464 0.515735,0.638117 1.058155,1.269791 1.499639,1.961121 0.519556,0.152318 1.077368,0.305261 1.522258,0.532268 0.648231,0.330769 1.236318,0.892569 1.891647,1.178224 0.578235,0.252042 1.177699,0.456225 1.789873,0.737425 0.249078,0.1144 0.511263,0.24425 0.768398,0.37362 0.05034,0.0159 0.102002,0.0286 0.156157,0.0341 0.148838,0.0237 0.298993,0.0492 0.442623,0.0951 0.245565,0.0784 0.47765,0.19257 0.718319,0.28267 0.07628,0.0286 0.132112,0.0654 0.170155,0.10542 0.06858,0.007 0.137344,0.0125 0.205157,0.0248 0.421161,0.0821 0.842453,0.16402 1.269713,0.21342 0.168234,0.0214 0.337531,0.0347 0.505626,0.0563 0.191016,0.0246 0.327073,0.0506 0.522854,0.0847 0.07142,0.0124 0.142851,0.0252 0.214312,0.0377 0.0041,1.2e-4 0.0078,0.002 0.01185,0.002 0.179515,0.007 0.353939,0.0475 0.528241,0.0868 0.104252,-0.009 0.211126,-0.0239 0.30585,-0.008 0.226432,0.0385 0.76868,0.0829 1.268097,0.17002 0.132461,0.004 0.263787,0.0238 0.392008,0.0568 0.266252,0.0444 0.534701,0.0732 0.801245,0.11472 h 32.335692 c 2.7238,-0.62892 5.44472,-1.27075 8.06467,-2.222599 1.16283,-0.422463 2.2324,-1.572821 3.39936,-2.197798 -0.18237,-0.136518 -0.13849,-0.114491 0.0177,-0.0098 0.0273,-0.01445 0.0539,-0.03214 0.0813,-0.04599 0.11326,-0.157305 0.23938,-0.305887 0.37425,-0.458885 0.38145,-0.432761 0.79421,-0.834176 1.22878,-1.21543 V 10.013342 Z" />
    <path
       style="fill:none;stroke:#000000;stroke-width:0.264583px;stroke-linecap:butt;stroke-linejoin:miter;stroke-opacity:1"
       d="m 99.763148,140.37711 -9.870829,-3.98146"
       id="path1588" />
    <text
       xml:space="preserve"
       style="font-size:3.52778px;line-height:1.25;font-family:sans-serif;text-align:center;text-anchor:middle;stroke-width:0.264583"
       x="89.68795"
       y="125.6311"
       id="text2846"
       transform="rotate(1.2540375)"><tspan
         sodipodi:role="line"
         style="font-size:3.52778px;text-align:center;text-anchor:middle;stroke-width:0.264583"
         x="89.68795"
         y="125.6311"
         id="tspan2848">Artificial</tspan><tspan
         sodipodi:role="line"
         style="font-size:3.52778px;text-align:center;text-anchor:middle;stroke-width:0.264583"
         x="89.68795"
         y="130.04082"
         id="tspan2267">Limb</tspan></text>
    <text
       xml:space="preserve"
       transform="scale(0.26458333)"
       id="text11768"
       style="line-height:1.25;font-family:sans-serif;font-size:10.66666667px;white-space:pre;shape-inside:url(#rect11770);text-align:center" />
    <text
       xml:space="preserve"
       style="font-size:3.52778px;line-height:1.25;font-family:sans-serif;stroke-width:0.264583"
       x="66.739464"
       y="23.375078"
       id="text31781"
       transform="rotate(1.2540375)"><tspan
         sodipodi:role="line"
         id="tspan31779"
         style="font-size:3.52778px;stroke-width:0.264583"
         x="66.739464"
         y="23.375078">Bone</tspan></text>
    <rect
       style="fill:url(#linearGradient1781);fill-opacity:1;stroke:none;stroke-width:0.424953;stroke-miterlimit:4;stroke-dasharray:none;stroke-dashoffset:0"
       id="rect1451-3-3"
       width="79.213165"
       height="23.198317"
       x="-89.477066"
       y="100.28744"
       transform="rotate(-90)" />
    <path
       style="fill:none;stroke:#000000;stroke-width:0.264583px;stroke-linecap:butt;stroke-linejoin:miter;stroke-opacity:1"
       d="M 89.953614,77.603154 73.808501,74.305414"
       id="path986" />
    <text
       xml:space="preserve"
       style="font-size:3.52778px;line-height:1.25;font-family:sans-serif;stroke-width:0.264583"
       x="63.524246"
       y="71.116219"
       id="text2024"
       transform="rotate(1.2540375)"><tspan
         sodipodi:role="line"
         id="tspan2022"
         style="font-size:3.52778px;stroke-width:0.264583"
         x="63.524246"
         y="71.116219">Soft tissue</tspan></text>
    <path
       style="fill:none;stroke:#000000;stroke-width:0.168788px;stroke-linecap:butt;stroke-linejoin:miter;stroke-opacity:1"
       d="M 103.49311,17.379612 80.796389,20.450073"
       id="path30215"
       sodipodi:nodetypes="cc" />
  </g>
  <g
     inkscape:label="Layer 1"
     inkscape:groupmode="layer"
     id="layer1">
    <text
       xml:space="preserve"
       style="font-size:3.52778px;line-height:1.25;font-family:sans-serif;stroke-width:0.264583"
       x="150.45114"
       y="98.671356"
       id="text13482"
       transform="rotate(1.2540375)"><tspan
         sodipodi:role="line"
         id="tspan13480"
         style="font-size:3.52778px;stroke-width:0.264583"
         x="150.45114"
         y="98.671356">Flange</tspan></text>
    <rect
       style="mix-blend-mode:normal;fill:#000000;fill-opacity:0.409912;stroke:#000000;stroke-width:0.279469"
       id="rect19539"
       width="69.560165"
       height="18.153414"
       x="19.772995"
       y="-120.73318"
       rx="0"
       ry="0"
       transform="rotate(90)" />
    <path
       style="fill:none;stroke:#000000;stroke-width:0.191735px;stroke-linecap:butt;stroke-linejoin:miter;stroke-opacity:1"
       d="M 103.81365,48.170014 82.674855,46.139765"
       id="path21855"
       sodipodi:nodetypes="cc" />
    <text
       xml:space="preserve"
       style="font-size:3.52778px;line-height:1.25;font-family:sans-serif;stroke-width:0.264583"
       x="58.574108"
       y="43.631142"
       id="text26963"
       transform="rotate(1.2540375)"><tspan
         sodipodi:role="line"
         style="font-size:3.52778px;stroke-width:0.264583"
         x="58.574108"
         y="43.631142"
         id="tspan3812">Bone cement</tspan></text>
    <text
       xml:space="preserve"
       style="font-size:3.52777px;line-height:1.25;font-family:sans-serif;stroke-width:0.264583"
       x="148.50861"
       y="50.521069"
       id="text6778"
       transform="rotate(1.2540375)"><tspan
         sodipodi:role="line"
         id="tspan6776"
         style="stroke-width:0.264583"
         x="148.50861"
         y="50.521069">Stem</tspan></text>
    <text
       xml:space="preserve"
       style="font-size:3.52778px;line-height:1.25;font-family:sans-serif;stroke-width:0.264583"
       x="135.82033"
       y="134.91745"
       id="text5335"
       transform="rotate(1.2540375)"><tspan
         sodipodi:role="line"
         id="tspan5333"
         style="font-size:3.52778px;stroke-width:0.264583"
         x="135.82033"
         y="134.91745">Spigot</tspan></text>
    <path
       id="rect1945"
       style="fill:#ffffff;fill-opacity:1;stroke:#000000;stroke-width:1.23755;stroke-miterlimit:4;stroke-dasharray:none;stroke-dashoffset:0"
       transform="scale(0.26458333)"
       d="m 416.42578,78.822266 c -10.14512,0 -18.3125,7.009913 -18.3125,15.716796 V 337.7207 c -8.52204,3.77904 -13.90622,9.17036 -14.99805,15.02149 h -66.90039 c -0.071,0 -0.14009,-0.002 -0.20703,-0.0176 -0.0669,-0.0113 -0.13194,-0.0308 -0.19336,-0.0508 -0.0614,-0.0227 -0.11929,-0.0507 -0.17383,-0.082 -0.0546,-0.034 -0.10593,-0.0674 -0.15234,-0.10742 l -0.004,-0.004 c 0.56077,15.07483 34.51956,28.13524 82.6289,31.77734 v 180.03711 c 0,8.7069 8.16738,15.71875 18.3125,15.71875 h 13.47266 c 10.14512,0 18.3125,-7.01185 18.3125,-15.71875 V 384.43164 c 49.05592,-3.34594 84.21402,-16.46457 85.09375,-31.75 -0.0522,0.0151 -0.10617,0.035 -0.16211,0.043 -0.0669,0.0113 -0.13598,0.0176 -0.20703,0.0176 h -65.14844 c -1.2861,-6.89163 -8.50786,-13.08496 -19.57617,-16.79102 V 94.539062 c 0,-8.706883 -8.16738,-15.716796 -18.3125,-15.716796 z" />
    <path
       style="fill:none;stroke:#000000;stroke-width:0.264583px;stroke-linecap:butt;stroke-linejoin:miter;stroke-opacity:1"
       d="m 111.75386,49.178324 34.30594,3.699534"
       id="path5256"
       sodipodi:nodetypes="cc" />
    <path
       style="fill:none;stroke:#000000;stroke-width:0.303074px;stroke-linecap:butt;stroke-linejoin:miter;stroke-opacity:1"
       d="m 115.97704,133.02803 15.60003,3.65545"
       id="path3769" />
    <path
       style="fill:none;stroke:#000000;stroke-width:0.264583px;stroke-linecap:butt;stroke-linejoin:miter;stroke-opacity:1"
       d="m 131.76319,95.344464 15.875,5.291656"
       id="path11476" />
    <path
       style="fill:none;stroke:#000000;stroke-width:0.264583px;stroke-linecap:butt;stroke-linejoin:miter;stroke-opacity:1"
       d="m 117.13467,92.127434 30.395,-16.488918"
       id="path373"
       sodipodi:nodetypes="cc" />
    <text
       xml:space="preserve"
       style="font-size:2.82223px;line-height:1.25;font-family:sans-serif;stroke-width:0.264583"
       x="152.02933"
       y="72.969063"
       id="text3127"
       transform="rotate(1.2540375)"><tspan
         sodipodi:role="line"
         id="tspan3125"
         style="stroke-width:0.264583"
         x="152.02933"
         y="72.969063">Collar</tspan></text>
  </g>
</svg>
